<?xml version="1.0" standalone="no"?><!DOCTYPE svg PUBLIC "-//W3C//DTD SVG 1.1//EN" "http://www.w3.org/Graphics/SVG/1.1/DTD/svg11.dtd"><svg t="1487406421916" class="icon" style="" viewBox="0 0 1024 1024" version="1.1" xmlns="http://www.w3.org/2000/svg" p-id="1960" xmlns:xlink="http://www.w3.org/1999/xlink" width="30" height="30"><defs><style type="text/css"></style></defs><path d="M511.99755 720.512181c152.428084 0 359.182696-155.772939 373.549761-198.595598-5.605977-46.913112-200.197479-216.570241-373.549761-216.570241-164.905002 0-373.649498 135.134576-373.668959 217.605321C142.667172 563.578881 342.982634 720.512181 511.99755 720.512181M511.99755 762.046766C338.835014 762.046766 96.831712 599.074482 96.831712 523.306826c0-120.0657 243.451928-259.501151 415.165839-259.501151 187.905441 0 415.170704 182.613273 415.170704 259.501151C927.168254 587.282348 678.769589 762.046766 511.99755 762.046766L511.99755 762.046766 511.99755 762.046766 511.99755 762.046766zM511.99755 762.046766" p-id="1961"></path><path d="M511.99755 616.720721c57.209184 0 103.795109-46.587141 103.795109-103.795109s-46.585925-103.790243-103.795109-103.790243S408.207307 455.716429 408.207307 512.925613 454.788366 616.720721 511.99755 616.720721M511.99755 658.256523c-80.271655 0-145.329694-65.059255-145.329694-145.33091 0-80.271655 65.058038-145.329694 145.329694-145.329694 80.276521 0 145.329694 65.058038 145.329694 145.329694C657.327244 593.197268 592.274071 658.256523 511.99755 658.256523L511.99755 658.256523 511.99755 658.256523 511.99755 658.256523zM511.99755 658.256523" p-id="1962"></path></svg>